<svg xmlns="http://www.w3.org/2000/svg" width="674.9646606445312" height="752.7890625" viewBox="-462.57208251953125 -449.3055725097656 674.9646606445312 752.7890625"><title>Neo4j Graph Visualization</title><desc>Created using Neo4j (http://www.neo4j.com/)</desc><g class="layer relationships"><g class="relationship" transform="translate(-33.61759314547277 -356.11371279227876) rotate(518.2289957750033)"><path class="b-outline" fill="#000000" stroke="none" d="M 30 1 L 159.9083973267235 1 L 159.9083973267235 -1 L 30 -1 Z M 207.6857410767235 1 L 337.594138403447 1 L 337.594138403447 4 L 345.594138403447 0 L 337.594138403447 -4 L 337.594138403447 -1 L 207.6857410767235 -1 Z"/><text text-anchor="middle" pointer-events="none" font-size="8px" fill="#000000" x="183.7970692017235" y="3" transform="rotate(180 183.7970692017235 0)" font-family="Helvetica Neue, Helvetica, Arial, sans-serif">ARGUMENT</text></g><g class="relationship" transform="translate(-33.61759314547277 -356.11371279227876) rotate(413.72573961774293)"><path class="b-outline" fill="#000000" stroke="none" d="M 30 1 L 63.70063730488728 1 L 63.70063730488728 -1 L 30 -1 Z M 138.46235605488727 1 L 172.16299335977456 1 L 172.16299335977456 4 L 180.16299335977456 0 L 172.16299335977456 -4 L 172.16299335977456 -1 L 138.46235605488727 -1 Z"/><text text-anchor="middle" pointer-events="none" font-size="8px" fill="#000000" x="101.08149667988728" y="3" font-family="Helvetica Neue, Helvetica, Arial, sans-serif">EXECUTABLE_REF</text></g><g class="relationship" transform="translate(-33.61759314547277 -356.11371279227876) rotate(394.2106885378154)"><path class="b-outline" fill="#000000" stroke="none" d="M 30 1 L 73.60755625782008 1 L 73.60755625782008 -1 L 30 -1 Z M 107.45911875782008 1 L 151.06667501564016 1 L 151.06667501564016 4 L 159.06667501564016 0 L 151.06667501564016 -4 L 151.06667501564016 -1 L 107.45911875782008 -1 Z"/><text text-anchor="middle" pointer-events="none" font-size="8px" fill="#000000" x="90.53333750782008" y="3" font-family="Helvetica Neue, Helvetica, Arial, sans-serif">TARGET</text></g><g class="relationship" transform="translate(49.21863273932115 -101.22136266299145) rotate(416.61298352599744)"><path class="b-outline" fill="#000000" stroke="none" d="M 30 1 L 58.57210259776326 1 L 58.57210259776326 -1 L 30 -1 Z M 106.34944634776326 1 L 134.92154894552652 1 L 134.92154894552652 4 L 142.92154894552652 0 L 134.92154894552652 -4 L 134.92154894552652 -1 L 106.34944634776326 -1 Z"/><text text-anchor="middle" pointer-events="none" font-size="8px" fill="#000000" x="82.46077447276326" y="3" font-family="Helvetica Neue, Helvetica, Arial, sans-serif">ARGUMENT</text></g><g class="relationship" transform="translate(49.21863273932115 -101.22136266299145) rotate(395.0846445951089)"><path class="b-outline" fill="#000000" stroke="none" d="M 30 1 L 51.039196658746036 1 L 51.039196658746036 -1 L 30 -1 Z M 98.81654040874604 1 L 119.85573706749207 1 L 119.85573706749207 4 L 127.85573706749207 0 L 119.85573706749207 -4 L 119.85573706749207 -1 L 98.81654040874604 -1 Z"/><text text-anchor="middle" pointer-events="none" font-size="8px" fill="#000000" x="74.92786853374604" y="3" font-family="Helvetica Neue, Helvetica, Arial, sans-serif">ARGUMENT</text></g><g class="relationship" transform="translate(49.21863273932115 -101.22136266299145) rotate(443.3180080060796)"><path class="b-outline" fill="#000000" stroke="none" d="M 30 1 L 145.2392124369474 1 L 145.2392124369474 -1 L 30 -1 Z M 220.0009311869474 1 L 335.2401436238948 1 L 335.2401436238948 4 L 343.2401436238948 0 L 335.2401436238948 -4 L 335.2401436238948 -1 L 220.0009311869474 -1 Z"/><text text-anchor="middle" pointer-events="none" font-size="8px" fill="#000000" x="182.6200718119474" y="3" font-family="Helvetica Neue, Helvetica, Arial, sans-serif">EXECUTABLE_REF</text></g><g class="relationship" transform="translate(49.21863273932115 -101.22136266299145) rotate(194.99102299572814)"><path class="b-outline" fill="#000000" stroke="none" d="M 30 1 L 202.49845969325716 1 L 202.49845969325716 -1 L 30 -1 Z M 236.35002219325716 1 L 408.8484818865143 1 L 408.8484818865143 4 L 416.8484818865143 0 L 408.8484818865143 -4 L 408.8484818865143 -1 L 236.35002219325716 -1 Z"/><text text-anchor="middle" pointer-events="none" font-size="8px" fill="#000000" x="219.42424094325716" y="3" transform="rotate(180 219.42424094325716 0)" font-family="Helvetica Neue, Helvetica, Arial, sans-serif">TARGET</text></g><g class="relationship" transform="translate(-114.55646012113621 -40.67945061553732) rotate(398.25282329462414)"><path class="b-outline" fill="#000000" stroke="none" d="M 30 1 L 38.30766569630367 1 L 38.30766569630367 -1 L 30 -1 Z M 86.08500944630367 1 L 94.39267514260735 1 L 94.39267514260735 4 L 102.39267514260735 0 L 94.39267514260735 -4 L 94.39267514260735 -1 L 86.08500944630367 -1 Z"/><text text-anchor="middle" pointer-events="none" font-size="8px" fill="#000000" x="62.19633757130367" y="3" font-family="Helvetica Neue, Helvetica, Arial, sans-serif">ARGUMENT</text></g><g class="relationship" transform="translate(-114.55646012113621 -40.67945061553732) rotate(375.3566113182127)"><path class="b-outline" fill="#000000" stroke="none" d="M 30 1 L 37.71838792780251 1 L 37.71838792780251 -1 L 30 -1 Z M 85.49573167780251 1 L 93.21411960560502 1 L 93.21411960560502 4 L 101.21411960560502 0 L 93.21411960560502 -4 L 93.21411960560502 -1 L 85.49573167780251 -1 Z"/><text text-anchor="middle" pointer-events="none" font-size="8px" fill="#000000" x="61.60705980280251" y="3" font-family="Helvetica Neue, Helvetica, Arial, sans-serif">ARGUMENT</text></g><g class="relationship" transform="translate(-114.55646012113621 -40.67945061553732) rotate(416.25503802605374)"><path class="b-outline" fill="#000000" stroke="none" d="M 30 1 L 145.12306494979552 1 L 145.12306494979552 -1 L 30 -1 Z M 219.88478369979552 1 L 335.00784864959104 1 L 335.00784864959104 4 L 343.00784864959104 0 L 335.00784864959104 -4 L 335.00784864959104 -1 L 219.88478369979552 -1 Z"/><text text-anchor="middle" pointer-events="none" font-size="8px" fill="#000000" x="182.50392432479552" y="3" font-family="Helvetica Neue, Helvetica, Arial, sans-serif">EXECUTABLE_REF</text></g><g class="relationship" transform="translate(-114.55646012113621 -40.67945061553732) rotate(213.3257573163038)"><path class="b-outline" fill="#000000" stroke="none" d="M 30 1 L 139.36513895271676 1 L 139.36513895271676 -1 L 30 -1 Z M 173.21670145271676 1 L 282.5818404054335 1 L 282.5818404054335 4 L 290.5818404054335 0 L 282.5818404054335 -4 L 282.5818404054335 -1 L 173.21670145271676 -1 Z"/><text text-anchor="middle" pointer-events="none" font-size="8px" fill="#000000" x="156.29092020271676" y="3" transform="rotate(180 156.29092020271676 0)" font-family="Helvetica Neue, Helvetica, Arial, sans-serif">TARGET</text></g><g class="relationship" transform="translate(-214.54630148511518 -23.107141018404036) rotate(451.8758907559086)"><path class="b-outline" fill="#000000" stroke="none" d="M 30 1 L 56.7290884564287 1 L 56.7290884564287 -1 L 30 -1 Z M 104.5064322064287 1 L 131.2355206628574 1 L 131.2355206628574 4 L 139.2355206628574 0 L 131.2355206628574 -4 L 131.2355206628574 -1 L 104.5064322064287 -1 Z"/><text text-anchor="middle" pointer-events="none" font-size="8px" fill="#000000" x="80.6177603314287" y="3" transform="rotate(180 80.6177603314287 0)" font-family="Helvetica Neue, Helvetica, Arial, sans-serif">ARGUMENT</text></g><g class="relationship" transform="translate(-214.54630148511518 -23.107141018404036) rotate(431.167106966932)"><path class="b-outline" fill="#000000" stroke="none" d="M 30 1 L 59.30384892613989 1 L 59.30384892613989 -1 L 30 -1 Z M 107.08119267613989 1 L 136.38504160227978 1 L 136.38504160227978 4 L 144.38504160227978 0 L 136.38504160227978 -4 L 136.38504160227978 -1 L 107.08119267613989 -1 Z"/><text text-anchor="middle" pointer-events="none" font-size="8px" fill="#000000" x="83.19252080113989" y="3" font-family="Helvetica Neue, Helvetica, Arial, sans-serif">ARGUMENT</text></g><g class="relationship" transform="translate(-214.54630148511518 -23.107141018404036) rotate(403.6051946210239)"><path class="b-outline" fill="#000000" stroke="none" d="M 30 1 L 170.73809276715878 1 L 170.73809276715878 -1 L 30 -1 Z M 245.49981151715878 1 L 386.23790428431755 1 L 386.23790428431755 4 L 394.23790428431755 0 L 386.23790428431755 -4 L 386.23790428431755 -1 L 245.49981151715878 -1 Z"/><text text-anchor="middle" pointer-events="none" font-size="8px" fill="#000000" x="208.11895214215878" y="3" font-family="Helvetica Neue, Helvetica, Arial, sans-serif">EXECUTABLE_REF</text></g><g class="relationship" transform="translate(-214.54630148511518 -23.107141018404036) rotate(229.0851476891886)"><path class="b-outline" fill="#000000" stroke="none" d="M 30 1 L 107.23596580699416 1 L 107.23596580699416 -1 L 30 -1 Z M 141.08752830699416 1 L 218.32349411398832 1 L 218.32349411398832 4 L 226.32349411398832 0 L 218.32349411398832 -4 L 218.32349411398832 -1 L 141.08752830699416 -1 Z"/><text text-anchor="middle" pointer-events="none" font-size="8px" fill="#000000" x="124.16174705699416" y="3" transform="rotate(180 124.16174705699416 0)" font-family="Helvetica Neue, Helvetica, Arial, sans-serif">TARGET</text></g><g class="relationship" transform="translate(-382.42197135231356 -216.80663276126646) rotate(439.7024504507864)"><path class="b-outline" fill="#000000" stroke="none" d="M 30 1 L 194.44572991453282 1 L 194.44572991453282 -1 L 30 -1 Z M 217.34026116453282 1 L 381.78599107906564 1 L 381.78599107906564 4 L 389.78599107906564 0 L 381.78599107906564 -4 L 381.78599107906564 -1 L 217.34026116453282 -1 Z"/><text text-anchor="middle" pointer-events="none" font-size="8px" fill="#000000" x="205.89299553953282" y="3" font-family="Helvetica Neue, Helvetica, Arial, sans-serif">TYPE</text></g><g class="relationship" transform="translate(-382.42197135231356 -216.80663276126646) rotate(464.5880811273131)"><path class="b-outline" fill="#000000" stroke="none" d="M 30 1 L 40.67618412348551 1 L 40.67618412348551 -1 L 30 -1 Z M 134.5550903734855 1 L 145.23127449697103 1 L 145.23127449697103 4 L 153.23127449697103 0 L 145.23127449697103 -4 L 145.23127449697103 -1 L 134.5550903734855 -1 Z"/><text text-anchor="middle" pointer-events="none" font-size="8px" fill="#000000" x="87.61563724848551" y="3" transform="rotate(180 87.61563724848551 0)" font-family="Helvetica Neue, Helvetica, Arial, sans-serif">DEFAULT_EXPRESSION</text></g><g class="relationship" transform="translate(-183.5110913261001 -415.30557801784266) rotate(439.5707263695256)"><path class="b-outline" fill="#000000" stroke="none" d="M 30 1 L 161.83071971903632 1 L 161.83071971903632 -1 L 30 -1 Z M 211.08853221903632 1 L 342.91925193807265 1 L 342.91925193807265 4 L 350.91925193807265 0 L 342.91925193807265 -4 L 342.91925193807265 -1 L 211.08853221903632 -1 Z"/><text text-anchor="middle" pointer-events="none" font-size="8px" fill="#000000" x="186.45962596903632" y="3" font-family="Helvetica Neue, Helvetica, Arial, sans-serif">STATEMENT</text></g><g class="relationship" transform="translate(-183.5110913261001 -415.30557801784266) rotate(495.0593898635122)"><path class="b-outline" fill="#000000" stroke="none" d="M 30 1 L 111.87676041577538 1 L 111.87676041577538 -1 L 30 -1 Z M 161.13457291577538 1 L 243.01133333155076 1 L 243.01133333155076 4 L 251.01133333155076 0 L 243.01133333155076 -4 L 243.01133333155076 -1 L 161.13457291577538 -1 Z"/><text text-anchor="middle" pointer-events="none" font-size="8px" fill="#000000" x="136.50566666577538" y="3" transform="rotate(180 136.50566666577538 0)" font-family="Helvetica Neue, Helvetica, Arial, sans-serif">STATEMENT</text></g><g class="relationship" transform="translate(-183.5110913261001 -415.30557801784266) rotate(381.5487072692947)"><path class="b-outline" fill="#000000" stroke="none" d="M 30 1 L 51.94984049147496 1 L 51.94984049147496 -1 L 30 -1 Z M 101.20765299147496 1 L 123.15749348294992 1 L 123.15749348294992 4 L 131.15749348294992 0 L 123.15749348294992 -4 L 123.15749348294992 -1 L 101.20765299147496 -1 Z"/><text text-anchor="middle" pointer-events="none" font-size="8px" fill="#000000" x="76.57874674147496" y="3" font-family="Helvetica Neue, Helvetica, Arial, sans-serif">STATEMENT</text></g><g class="relationship" transform="translate(-183.5110913261001 -415.30557801784266) rotate(454.5244670477061)"><path class="b-outline" fill="#000000" stroke="none" d="M 30 1 L 168.083319002027 1 L 168.083319002027 -1 L 30 -1 Z M 217.341131502027 1 L 355.424450504054 1 L 355.424450504054 4 L 363.424450504054 0 L 355.424450504054 -4 L 355.424450504054 -1 L 217.341131502027 -1 Z"/><text text-anchor="middle" pointer-events="none" font-size="8px" fill="#000000" x="192.712225252027" y="3" transform="rotate(180 192.712225252027 0)" font-family="Helvetica Neue, Helvetica, Arial, sans-serif">STATEMENT</text></g><g class="relationship" transform="translate(-183.5110913261001 -415.30557801784266) rotate(413.4623408305349)"><path class="b-outline" fill="#000000" stroke="none" d="M 30 1 L 166.8269831462009 1 L 166.8269831462009 -1 L 30 -1 Z M 216.0847956462009 1 L 352.9117787924018 1 L 352.9117787924018 4 L 360.9117787924018 0 L 352.9117787924018 -4 L 352.9117787924018 -1 L 216.0847956462009 -1 Z"/><text text-anchor="middle" pointer-events="none" font-size="8px" fill="#000000" x="191.4558893962009" y="3" font-family="Helvetica Neue, Helvetica, Arial, sans-serif">STATEMENT</text></g><g class="relationship" transform="translate(-307.3809706094032 196.21773275938406) rotate(370.3787451564301)"><path class="b-outline" fill="#000000" stroke="none" d="M 30 1 L 168.11313324849846 1 L 168.11313324849846 -1 L 30 -1 Z M 230.57016449849846 1 L 368.6832977469969 1 L 368.6832977469969 4 L 376.6832977469969 0 L 368.6832977469969 -4 L 368.6832977469969 -1 L 230.57016449849846 -1 Z"/><text text-anchor="middle" pointer-events="none" font-size="8px" fill="#000000" x="199.34164887349846" y="3" font-family="Helvetica Neue, Helvetica, Arial, sans-serif">TYPE_MEMBER</text></g></g><g class="layer nodes"><g class="node" aria-label="graph-node2091" transform="translate(-114.55646012113621,-40.67945061553732)"><circle class="b-outline" cx="0" cy="0" r="30" fill="#BBCC33" stroke="#000000" stroke-width="2px"/><text class="caption" text-anchor="middle" pointer-events="none" x="0" y="5" font-size="10px" fill="#000000" font-family="Helvetica Neue, Helvetica, Arial, sans-serif"> Invocation</text></g><g class="node" aria-label="graph-node2121" transform="translate(-183.5110913261001,-415.30557801784266)"><circle class="b-outline" cx="0" cy="0" r="30" fill="#EE8866" stroke="#000000" stroke-width="2px"/><text class="caption" text-anchor="middle" pointer-events="none" x="0" y="5" font-size="10px" fill="#000000" font-family="Helvetica Neue, Helvetica, Arial, sans-serif"> Block</text></g><g class="node" aria-label="graph-node2115" transform="translate(-10.590289749441851,41.28917661256613)"><circle class="b-outline" cx="0" cy="0" r="30" fill="#EEDD88" stroke="#000000" stroke-width="2px"/><text class="caption" text-anchor="middle" pointer-events="none" x="0" y="5" font-size="10px" fill="#000000" font-family="Helvetica Neue, Helvetica, Arial, sans-serif"> Literal</text></g><g class="node" aria-label="graph-node2098" transform="translate(11.972820327952263,-5.930545986615044)"><circle class="b-outline" cx="0" cy="0" r="30" fill="#BBCC33" stroke="#000000" stroke-width="2px"/><text class="caption" text-anchor="middle" pointer-events="none" x="0" y="5" font-size="10px" fill="#000000" font-family="Helvetica Neue, Helvetica, Arial, sans-serif"> Invocation</text></g><g class="node" aria-label="graph-node2108" transform="translate(92.64832540328058,269.48346143227127)"><circle class="b-outline" cx="0" cy="0" r="30" fill="#44BB99" stroke="#000000" stroke-width="2px"/><text class="caption" text-anchor="middle" pointer-events="none" x="0" y="5" font-size="10px" fill="#000000" font-family="Helvetica Neue, Helvetica, Arial, sans-serif"> put</text></g><g class="node" aria-label="graph-node2106" transform="translate(-382.42197135231356,-216.80663276126646)"><circle class="b-outline" cx="0" cy="0" r="30" fill="#AAAA00" stroke="#000000" stroke-width="2px"/><text class="caption" text-anchor="middle" pointer-events="none" x="0" y="5" font-size="10px" fill="#000000" font-family="Helvetica Neue, Helvetica, Arial, sans-serif"> transaction</text></g><g class="node" aria-label="graph-node2133" transform="translate(-307.3809706094032,196.21773275938406)"><circle class="b-outline" cx="0" cy="0" r="30" fill="#99DDFF" stroke="#000000" stroke-width="2px"/><text class="caption" text-anchor="middle" pointer-events="none" x="0" y="5" font-size="10px" fill="#000000" font-family="Helvetica Neue, Helvetica, Arial, sans-serif"> JSONObject</text></g><g class="node" aria-label="graph-node2152" transform="translate(-428.57207451257545,-39.482443965486155)"><circle class="b-outline" cx="0" cy="0" r="30" fill="#BBCC33" stroke="#000000" stroke-width="2px"/><text class="caption" text-anchor="middle" pointer-events="none" x="0" y="5" font-size="10px" fill="#000000" font-family="Helvetica Neue, Helvetica, Arial, sans-serif"> Constructo…</text></g><g class="node" aria-label="graph-node2087" transform="translate(-33.61759314547277,-356.11371279227876)"><circle class="b-outline" cx="0" cy="0" r="30" fill="#BBCC33" stroke="#000000" stroke-width="2px"/><text class="caption" text-anchor="middle" pointer-events="none" x="0" y="5" font-size="10px" fill="#000000" font-family="Helvetica Neue, Helvetica, Arial, sans-serif"> Invocation</text></g><g class="node" aria-label="graph-node2110" transform="translate(90.72556527529856,-186.6815354118071)"><circle class="b-outline" cx="0" cy="0" r="30" fill="#44BB99" stroke="#000000" stroke-width="2px"/><text class="caption" text-anchor="middle" pointer-events="none" x="0" y="5" font-size="10px" fill="#000000" font-family="Helvetica Neue, Helvetica, Arial, sans-serif"> put</text></g><g class="node" aria-label="graph-node2113" transform="translate(122.73595336401536,-249.81330782891553)"><circle class="b-outline" cx="0" cy="0" r="30" fill="#AAAA00" stroke="#000000" stroke-width="2px"/><text class="caption" text-anchor="middle" pointer-events="none" x="0" y="5" font-size="10px" fill="#000000" font-family="Helvetica Neue, Helvetica, Arial, sans-serif"> json</text></g><g class="node" aria-label="graph-node2096" transform="translate(-214.54630148511518,-23.107141018404036)"><circle class="b-outline" cx="0" cy="0" r="30" fill="#BBCC33" stroke="#000000" stroke-width="2px"/><text class="caption" text-anchor="middle" pointer-events="none" x="0" y="5" font-size="10px" fill="#000000" font-family="Helvetica Neue, Helvetica, Arial, sans-serif"> Invocation</text></g><g class="node" aria-label="graph-node2117" transform="translate(-220.08616213361984,146.03768272156023)"><circle class="b-outline" cx="0" cy="0" r="30" fill="#EEDD88" stroke="#000000" stroke-width="2px"/><text class="caption" text-anchor="middle" pointer-events="none" x="0" y="5" font-size="10px" fill="#000000" font-family="Helvetica Neue, Helvetica, Arial, sans-serif"> Literal</text></g><g class="node" aria-label="graph-node2095" transform="translate(-158.2532221747952,141.94203939880032)"><circle class="b-outline" cx="0" cy="0" r="30" fill="#BBCC33" stroke="#000000" stroke-width="2px"/><text class="caption" text-anchor="middle" pointer-events="none" x="0" y="5" font-size="10px" fill="#000000" font-family="Helvetica Neue, Helvetica, Arial, sans-serif"> Invocation</text></g><g class="node" aria-label="graph-node2089" transform="translate(49.21863273932115,-101.22136266299145)"><circle class="b-outline" cx="0" cy="0" r="30" fill="#BBCC33" stroke="#000000" stroke-width="2px"/><text class="caption" text-anchor="middle" pointer-events="none" x="0" y="5" font-size="10px" fill="#000000" font-family="Helvetica Neue, Helvetica, Arial, sans-serif"> Invocation</text></g><g class="node" aria-label="graph-node2116" transform="translate(144.37589907608012,43.16338983198375)"><circle class="b-outline" cx="0" cy="0" r="30" fill="#EEDD88" stroke="#000000" stroke-width="2px"/><text class="caption" text-anchor="middle" pointer-events="none" x="0" y="5" font-size="10px" fill="#000000" font-family="Helvetica Neue, Helvetica, Arial, sans-serif"> Literal</text></g><g class="node" aria-label="graph-node2097" transform="translate(178.39258078330732,-10.488100449783502)"><circle class="b-outline" cx="0" cy="0" r="30" fill="#BBCC33" stroke="#000000" stroke-width="2px"/><text class="caption" text-anchor="middle" pointer-events="none" x="0" y="5" font-size="10px" fill="#000000" font-family="Helvetica Neue, Helvetica, Arial, sans-serif"> Invocation</text></g></g></svg>