<?xml version="1.0" encoding="UTF-8" standalone="no"?>
<svg
   contentStyleType="text/css"
   height="290"
   preserveAspectRatio="none"
   version="1.1"
   viewBox="0 0 441 290"
   width="441"
   zoomAndPan="magnify"
   id="svg298"
   sodipodi:docname="structured-control.svg"
   inkscape:version="1.2.2 (732a01da63, 2022-12-09)"
   xmlns:inkscape="http://www.inkscape.org/namespaces/inkscape"
   xmlns:sodipodi="http://sodipodi.sourceforge.net/DTD/sodipodi-0.dtd"
   xmlns="http://www.w3.org/2000/svg"
   xmlns:svg="http://www.w3.org/2000/svg">
  <sodipodi:namedview
     id="namedview300"
     pagecolor="#ffffff"
     bordercolor="#000000"
     borderopacity="0.25"
     inkscape:showpageshadow="2"
     inkscape:pageopacity="0.0"
     inkscape:pagecheckerboard="0"
     inkscape:deskcolor="#d1d1d1"
     showgrid="false"
     inkscape:zoom="2.5429448"
     inkscape:cx="129.96743"
     inkscape:cy="167.91556"
     inkscape:window-width="1920"
     inkscape:window-height="1057"
     inkscape:window-x="1912"
     inkscape:window-y="-8"
     inkscape:window-maximized="1"
     inkscape:current-layer="svg298" />
  <defs
     id="defs152" />
  <g
     id="g296">
    <line
       style="stroke:none;stroke-width:1.5"
       x1="52"
       x2="362.5"
       y1="-34"
       y2="-34"
       id="line154" />
    <rect
       fill="#f1f1f1"
       height="33.9688"
       rx="12.5"
       ry="12.5"
       style="stroke:#181818;stroke-width:0.5"
       width="82"
       x="11"
       y="42.5"
       id="rect158" />
    <text
       fill="#000000"
       font-family="sans-serif"
       font-size="12px"
       lengthAdjust="spacing"
       textLength="62"
       x="21"
       y="107.6387"
       id="text160"
       transform="translate(0,-44)">instruction</text>
    <rect
       fill="#f1f1f1"
       height="33.9688"
       rx="12.5"
       ry="12.5"
       style="stroke:#181818;stroke-width:0.5"
       width="82"
       x="11"
       y="111.4688"
       id="rect162" />
    <text
       fill="#000000"
       font-family="sans-serif"
       font-size="12px"
       lengthAdjust="spacing"
       textLength="62"
       x="21"
       y="176.60741"
       id="text164"
       transform="translate(0,-44)">instruction</text>
    <rect
       fill="#f1f1f1"
       height="33.9688"
       rx="12.5"
       ry="12.5"
       style="stroke:#181818;stroke-width:0.5"
       width="82"
       x="11"
       y="180.4375"
       id="rect166" />
    <text
       fill="#000000"
       font-family="sans-serif"
       font-size="12px"
       lengthAdjust="spacing"
       textLength="62"
       x="21"
       y="245.5762"
       id="text168"
       transform="translate(0,-44)">instruction</text>
    <text
       fill="#000000"
       font-family="sans-serif"
       font-size="12px"
       lengthAdjust="spacing"
       textLength="62"
       x="21"
       y="245.5762"
       id="text168-8"
       transform="translate(-2.4452866,30.810224)"
       style="font-size:12px;font-family:sans-serif;fill:#000000"><tspan
         style="font-style:normal;font-variant:normal;font-weight:normal;font-stretch:normal;font-size:12px;font-family:sans-serif;-inkscape-font-specification:'sans-serif, Normal';font-variant-ligatures:normal;font-variant-caps:normal;font-variant-numeric:normal;font-variant-east-asian:normal"
         id="tspan1356">Séquence</tspan></text>
    <text
       fill="#000000"
       font-family="sans-serif"
       font-size="12px"
       lengthAdjust="spacing"
       textLength="62"
       x="21"
       y="245.5762"
       id="text168-82"
       transform="translate(143.41479,31.926435)"
       style="font-size:12px;font-family:sans-serif;fill:#000000"><tspan
         style="font-style:normal;font-variant:normal;font-weight:normal;font-stretch:normal;font-size:12px;font-family:sans-serif;-inkscape-font-specification:'sans-serif, Normal';font-variant-ligatures:normal;font-variant-caps:normal;font-variant-numeric:normal;font-variant-east-asian:normal"
         id="tspan1358">Sélection</tspan></text>
    <text
       fill="#000000"
       font-family="sans-serif"
       font-size="12px"
       lengthAdjust="spacing"
       textLength="62"
       x="21"
       y="245.5762"
       id="text168-2"
       transform="translate(315.33035,30.810224)"
       style="font-size:12px;font-family:sans-serif;fill:#000000"><tspan
         style="font-style:normal;font-variant:normal;font-weight:normal;font-stretch:normal;font-size:12px;font-family:sans-serif;-inkscape-font-specification:'sans-serif, Normal';font-variant-ligatures:normal;font-variant-caps:normal;font-variant-numeric:normal;font-variant-east-asian:normal"
         id="tspan1360">Répétition</tspan></text>
    <polygon
       fill="#f1f1f1"
       points="223.5,147.4688 166.5,147.4688 154.5,135.4688 166.5,123.4688 223.5,123.4688 235.5,135.4688 "
       style="stroke:#181818;stroke-width:0.5"
       id="polygon176"
       transform="translate(0,-44)" />
    <text
       fill="#000000"
       font-family="sans-serif"
       font-size="11px"
       lengthAdjust="spacing"
       textLength="57"
       x="166.5"
       y="139.2769"
       id="text178"
       transform="translate(0,-44)">condition?</text>
    <text
       fill="#000000"
       font-family="sans-serif"
       font-size="11px"
       lengthAdjust="spacing"
       textLength="21"
       x="133.5"
       y="132.8745"
       id="text180"
       transform="translate(0,-44)">vrai</text>
    <text
       fill="#000000"
       font-family="sans-serif"
       font-size="11px"
       lengthAdjust="spacing"
       textLength="25"
       x="235.5"
       y="132.8745"
       id="text182"
       transform="translate(0,-44)">faux</text>
    <rect
       fill="#f1f1f1"
       height="33.9688"
       rx="12.5"
       ry="12.5"
       style="stroke:#181818;stroke-width:0.5"
       width="82"
       x="103"
       y="113.4688"
       id="rect184" />
    <text
       fill="#000000"
       font-family="sans-serif"
       font-size="12px"
       lengthAdjust="spacing"
       textLength="62"
       x="113"
       y="178.60741"
       id="text186"
       transform="translate(0,-44)">instruction</text>
    <rect
       fill="#f1f1f1"
       height="33.9688"
       rx="12.5"
       ry="12.5"
       style="stroke:#181818;stroke-width:0.5"
       width="82"
       x="205"
       y="113.4688"
       id="rect188" />
    <text
       fill="#000000"
       font-family="sans-serif"
       font-size="12px"
       lengthAdjust="spacing"
       textLength="62"
       x="215"
       y="178.60741"
       id="text190"
       transform="translate(0,-44)">instruction</text>
    <polygon
       fill="#f1f1f1"
       points="207,209.4375 195,221.4375 183,209.4375 195,197.4375 "
       style="stroke:#181818;stroke-width:0.5"
       id="polygon192"
       transform="translate(0,-44)" />
    <rect
       fill="#f1f1f1"
       height="33.9688"
       rx="12.5"
       ry="12.5"
       style="stroke:#181818;stroke-width:0.5"
       width="82"
       x="321.5"
       y="129.87109"
       id="rect200" />
    <text
       fill="#000000"
       font-family="sans-serif"
       font-size="12px"
       lengthAdjust="spacing"
       textLength="62"
       x="331.5"
       y="195.0098"
       id="text202"
       transform="translate(0,-44)">instruction</text>
    <polygon
       fill="#f1f1f1"
       points="391,137.0664 334,137.0664 322,125.0664 334,113.0664 391,113.0664 403,125.0664 "
       style="stroke:#181818;stroke-width:0.5"
       id="polygon204"
       transform="translate(0,-44)" />
    <text
       fill="#000000"
       font-family="sans-serif"
       font-size="11px"
       lengthAdjust="spacing"
       textLength="21"
       x="366.5"
       y="147.2769"
       id="text206"
       transform="translate(0,-44)">vrai</text>
    <text
       fill="#000000"
       font-family="sans-serif"
       font-size="11px"
       lengthAdjust="spacing"
       textLength="57"
       x="334"
       y="128.8745"
       id="text208"
       transform="translate(0,-44)">condition?</text>
    <text
       fill="#000000"
       font-family="sans-serif"
       font-size="11px"
       lengthAdjust="spacing"
       textLength="25"
       x="297"
       y="122.4722"
       id="text210"
       transform="translate(0,-44)">faux</text>
    <line
       style="stroke:#181818;stroke-width:1"
       x1="52"
       x2="52"
       y1="7.5"
       y2="42.5"
       id="line216" />
    <polygon
       fill="#181818"
       points="52,86.5 56,76.5 52,80.5 48,76.5 "
       style="stroke:#181818;stroke-width:1"
       id="polygon218"
       transform="translate(0,-44)" />
    <line
       style="stroke:#181818;stroke-width:1"
       x1="52"
       x2="52"
       y1="76.468803"
       y2="111.4688"
       id="line220" />
    <polygon
       fill="#181818"
       points="52,155.4688 56,145.4688 52,149.4688 48,145.4688 "
       style="stroke:#181818;stroke-width:1"
       id="polygon222"
       transform="translate(0,-44)" />
    <line
       style="stroke:#181818;stroke-width:1"
       x1="52"
       x2="52"
       y1="145.4375"
       y2="180.4375"
       id="line224" />
    <polygon
       fill="#181818"
       points="52,224.4375 56,214.4375 52,218.4375 48,214.4375 "
       style="stroke:#181818;stroke-width:1"
       id="polygon226"
       transform="translate(0,-44)" />
    <line
       style="stroke:#181818;stroke-width:1"
       x1="52"
       x2="52"
       y1="214.40631"
       y2="249.40631"
       id="line228" />
    <polygon
       fill="#181818"
       points="52,293.4063 56,283.4063 52,287.4063 48,283.4063 "
       style="stroke:#181818;stroke-width:1"
       id="polygon230"
       transform="translate(0,-44)" />
    <line
       style="stroke:#181818;stroke-width:1"
       x1="154.5"
       x2="144"
       y1="91.468803"
       y2="91.468803"
       id="line232" />
    <line
       style="stroke:#181818;stroke-width:1"
       x1="144"
       x2="144"
       y1="91.468803"
       y2="113.4688"
       id="line234" />
    <polygon
       fill="#181818"
       points="144,157.4688 148,147.4688 144,151.4688 140,147.4688 "
       style="stroke:#181818;stroke-width:1"
       id="polygon236"
       transform="translate(0,-44)" />
    <line
       style="stroke:#181818;stroke-width:1"
       x1="235.5"
       x2="246"
       y1="91.468803"
       y2="91.468803"
       id="line238" />
    <line
       style="stroke:#181818;stroke-width:1"
       x1="246"
       x2="246"
       y1="91.468803"
       y2="113.4688"
       id="line240" />
    <polygon
       fill="#181818"
       points="246,157.4688 250,147.4688 246,151.4688 242,147.4688 "
       style="stroke:#181818;stroke-width:1"
       id="polygon242"
       transform="translate(0,-44)" />
    <line
       style="stroke:#181818;stroke-width:1"
       x1="144"
       x2="144"
       y1="147.4375"
       y2="165.4375"
       id="line244" />
    <line
       style="stroke:#181818;stroke-width:1"
       x1="144"
       x2="183"
       y1="165.4375"
       y2="165.4375"
       id="line246" />
    <polygon
       fill="#181818"
       points="183,209.4375 173,213.4375 177,209.4375 173,205.4375 "
       style="stroke:#181818;stroke-width:1"
       id="polygon248"
       transform="translate(0,-44)" />
    <line
       style="stroke:#181818;stroke-width:1"
       x1="246"
       x2="246"
       y1="147.4375"
       y2="165.4375"
       id="line250" />
    <line
       style="stroke:#181818;stroke-width:1"
       x1="246"
       x2="207"
       y1="165.4375"
       y2="165.4375"
       id="line252" />
    <polygon
       fill="#181818"
       points="207,209.4375 217,213.4375 213,209.4375 217,205.4375 "
       style="stroke:#181818;stroke-width:1"
       id="polygon254"
       transform="translate(0,-44)" />
    <line
       style="stroke:#181818;stroke-width:1"
       x1="195"
       x2="195"
       y1="44.468803"
       y2="79.468803"
       id="line256" />
    <polygon
       fill="#181818"
       points="195,123.4688 199,113.4688 195,117.4688 191,113.4688 "
       style="stroke:#181818;stroke-width:1"
       id="polygon258"
       transform="translate(0,-44)" />
    <line
       style="stroke:#181818;stroke-width:1"
       x1="195"
       x2="195"
       y1="177.4375"
       y2="212.4375"
       id="line260" />
    <polygon
       fill="#181818"
       points="195,256.4375 199,246.4375 195,250.4375 191,246.4375 "
       style="stroke:#181818;stroke-width:1"
       id="polygon262"
       transform="translate(0,-44)" />
    <line
       style="stroke:#181818;stroke-width:1"
       x1="362.5"
       x2="362.5"
       y1="93.066406"
       y2="129.87109"
       id="line264" />
    <polygon
       fill="#181818"
       points="362.5,173.8711 366.5,163.8711 362.5,167.8711 358.5,163.8711 "
       style="stroke:#181818;stroke-width:1"
       id="polygon266"
       transform="translate(0,-44)" />
    <line
       style="stroke:#181818;stroke-width:1"
       x1="362.5"
       x2="362.5"
       y1="163.8398"
       y2="175.8398"
       id="line268" />
    <line
       style="stroke:#181818;stroke-width:1"
       x1="362.5"
       x2="415.5"
       y1="175.8398"
       y2="175.8398"
       id="line270" />
    <polygon
       fill="#181818"
       points="415.5,172.4531 419.5,182.4531 415.5,178.4531 411.5,182.4531 "
       style="stroke:#181818;stroke-width:1"
       id="polygon272"
       transform="translate(0,-44)" />
    <line
       style="stroke:#181818;stroke-width:1"
       x1="415.5"
       x2="415.5"
       y1="81.066399"
       y2="175.8398"
       id="line274" />
    <line
       style="stroke:#181818;stroke-width:1"
       x1="415.5"
       x2="403"
       y1="81.066399"
       y2="81.066399"
       id="line276" />
    <polygon
       fill="#181818"
       points="403,125.0664 413,129.0664 409,125.0664 413,121.0664 "
       style="stroke:#181818;stroke-width:1"
       id="polygon278"
       transform="translate(0,-44)" />
    <line
       style="stroke:#181818;stroke-width:1"
       x1="322"
       x2="309.5"
       y1="81.066399"
       y2="81.066399"
       id="line280" />
    <polygon
       fill="#181818"
       points="309.5,178.4531 313.5,168.4531 309.5,172.4531 305.5,168.4531 "
       style="stroke:#181818;stroke-width:1"
       id="polygon282"
       transform="translate(0,-44)" />
    <line
       style="stroke:#181818;stroke-width:1"
       x1="309.5"
       x2="309.5"
       y1="81.066399"
       y2="187.8398"
       id="line284" />
    <line
       style="stroke:#181818;stroke-width:1"
       x1="309.5"
       x2="362.5"
       y1="187.8398"
       y2="187.8398"
       id="line286" />
    <line
       style="stroke:#181818;stroke-width:1"
       x1="362.5"
       x2="362.5"
       y1="187.8398"
       y2="222.83981"
       id="line288" />
    <polygon
       fill="#181818"
       points="362.5,266.8398 366.5,256.8398 362.5,260.8398 358.5,256.8398 "
       style="stroke:#181818;stroke-width:1"
       id="polygon290"
       transform="translate(0,-44)" />
    <line
       style="stroke:#181818;stroke-width:1"
       x1="362.5"
       x2="362.5"
       y1="34.066399"
       y2="69.066399"
       id="line292" />
    <polygon
       fill="#181818"
       points="362.5,113.0664 366.5,103.0664 362.5,107.0664 358.5,103.0664 "
       style="stroke:#181818;stroke-width:1"
       id="polygon294"
       transform="translate(0,-44)" />
    <!--SRC=[ZSqn3i8m343HtQVmc0wz04Xm4CHWDGwn53bLx0B7fwKibGfYZ6F_PsCHX_wI9KRMQty2SseE1r7pDWqkLOy_N-Pr1B2bWtGZqPsQ90n3rIZBoRb3pwmOxesa0yHjZuinXaJJS-TlJgI_n4UMmbjKx2kfyRE_iYimJ_6Dl000]-->
  </g>
</svg>
